<?xml version="1.0" standalone="no"?>
<!DOCTYPE svg PUBLIC "-//W3C//DTD SVG 20010904//EN"
 "http://www.w3.org/TR/2001/REC-SVG-20010904/DTD/svg10.dtd">
<svg version="1.0" xmlns="http://www.w3.org/2000/svg"
 width="16.000000pt" height="16.000000pt" viewBox="0 0 16.000000 16.000000"
 preserveAspectRatio="xMidYMid meet">
<metadata>
Created by potrace 1.11, written by Peter Selinger 2001-2013
</metadata>
<g transform="translate(0.000000,16.000000) scale(0.005000,-0.005000)"
fill="#000000" stroke="none">
<path d="M1585 2779 c-3 -8 -129 -383 -280 -834 -152 -451 -331 -985 -400
-1188 l-124 -367 196 2 196 3 23 70 c13 39 41 129 64 202 l41 131 301 -1 301
-2 38 -125 c20 -69 48 -159 61 -200 l24 -75 197 -3 197 -2 -11 27 c-11 27
-179 516 -324 943 -85 250 -293 856 -358 1045 -25 72 -64 186 -87 255 -48 139
-47 139 -55 119z m120 -1361 c54 -172 100 -318 102 -325 3 -8 -51 -11 -207
-11 -159 -1 -211 2 -207 11 2 7 49 153 103 325 54 171 101 312 104 312 4 0 51
-141 105 -312z"/>
<path d="M685 1065 c-66 -7 -158 -16 -205 -20 -47 -4 -96 -8 -110 -10 -14 -2
-60 -7 -103 -10 -44 -4 -88 -8 -98 -10 -11 -2 -42 -5 -70 -6 l-49 -3 -21 -70
c-12 -39 -22 -75 -23 -80 -1 -10 -1 -10 179 -20 72 -4 150 -9 175 -11 25 -2
99 -7 165 -10 66 -3 153 -8 193 -11 39 -3 72 -4 72 -1 0 2 20 62 45 133 25 71
45 132 45 136 0 10 -46 8 -195 -7z"/>
<path d="M2320 1071 c0 -4 18 -59 41 -122 22 -63 43 -122 46 -132 5 -16 15
-17 112 -12 58 4 124 8 146 10 22 2 103 6 180 10 77 4 185 11 240 15 55 4 104
5 109 2 5 -3 6 2 3 12 -4 9 -14 42 -23 74 -9 31 -20 62 -25 68 -5 6 -44 14
-86 17 -43 4 -96 9 -119 11 -23 3 -72 8 -110 11 -38 3 -89 7 -114 10 -71 8
-374 35 -387 35 -7 0 -13 -4 -13 -9z"/>
</g>
</svg>
